<svg xmlns="http://www.w3.org/2000/svg" version="1.1" xmlns:xlink="http://www.w3.org/1999/xlink" xmlns:svgjs="http://svgjs.dev/svgjs" width="1500" height="1500" viewBox="0 0 1500 1500"><rect width="1500" height="1500" fill="#ffffff"></rect><g transform="matrix(0.6666666666666666,0,0,0.6666666666666666,250,250.00092325166486)"><svg viewBox="0 0 280 280" data-background-color="#ffffff" preserveAspectRatio="xMidYMid meet" height="1500" width="1500" xmlns="http://www.w3.org/2000/svg" xmlns:xlink="http://www.w3.org/1999/xlink"><g id="tight-bounds" transform="matrix(1,0,0,1,0,-0.00025851046615343876)"><svg viewBox="0 0 280 280" height="280" width="280"><g><svg viewBox="0 0 280 280" height="280" width="280"><g><svg viewBox="0 0 280 280" height="280" width="280"><g id="textblocktransform"><svg viewBox="0 0 280 280" height="280" width="280" id="textblock"><g><svg viewBox="0 0 280 280" height="280" width="280"><g transform="matrix(1,0,0,1,74.00336708925556,76.96680813015064)"><svg viewBox="0 0 131.99326582148888 126.06638373969874" height="126.06638373969874" width="131.99326582148888"><g id="icon-0"><svg xmlns="http://www.w3.org/2000/svg" xmlns:xlink="http://www.w3.org/1999/xlink" version="1.1" x="0" y="0" viewBox="8.9 10.3 82.39999999999999 78.7" style="enable-background:new 0 0 100 100;" xml:space="preserve" height="126.06638373969874" width="131.99326582148888" class="icon-xg-0" data-fill-palette-color="accent" id="xg-0"><g fill="#8bd8bc" data-fill-palette-color="accent"><path d="M89.9 86h-1.5V49.7h-8V11.8c0-0.8-0.7-1.5-1.5-1.5s-1.5 0.7-1.5 1.5v37.9H60.8v6.1H50.4c-0.1 0-0.1 0-0.2 0s-0.1 0-0.2 0H36.5c-0.1 0-0.1 0-0.2 0s-0.1 0-0.2 0H23.9V11.8c0-0.8-0.7-1.5-1.5-1.5s-1.5 0.7-1.5 1.5v43.9h-4.1c-0.8 0-1.5 0.7-1.5 1.5s0.7 1.5 1.5 1.5h4.1V86H10.4c-0.8 0-1.5 0.7-1.5 1.5S9.6 89 10.4 89h50.3 27.6 1.5c0.8 0 1.5-0.7 1.5-1.5S90.7 86 89.9 86zM48.7 58.7V86H37.8V58.7H48.7zM23.9 58.7h10.9V86H23.9V58.7zM51.7 86V58.7h9.1V86H51.7zM63.8 86V52.7h21.6V86H63.8z" fill="#8bd8bc" data-fill-palette-color="accent"></path><rect x="67" y="70.5" width="14.7" height="4.3" fill="#8bd8bc" data-fill-palette-color="accent"></rect><polygon points="70.4,64.4 70.3,66.2 72.1,66.1 72.9,67.7 74.4,66.7 75.9,67.7 76.7,66.1 78.5,66.2 78.4,64.4 80,63.6 79.1,62.1    80,60.5 78.4,59.7 78.5,57.9 76.7,58 75.9,56.4 74.4,57.4 72.9,56.4 72.1,58 70.3,57.9 70.4,59.7 68.8,60.5 69.7,62.1 68.8,63.6     " fill="#8bd8bc" data-fill-palette-color="accent"></polygon><path d="M43.7 74.8h2.5c0.8 0 1.5-0.7 1.5-1.5s-0.7-1.5-1.5-1.5h-2.5c-0.8 0-1.5 0.7-1.5 1.5S42.8 74.8 43.7 74.8z" fill="#8bd8bc" data-fill-palette-color="accent"></path><path d="M56.9 71.7h-2.5c-0.8 0-1.5 0.7-1.5 1.5s0.7 1.5 1.5 1.5h2.5c0.8 0 1.5-0.7 1.5-1.5S57.8 71.7 56.9 71.7z" fill="#8bd8bc" data-fill-palette-color="accent"></path><path d="M46.4 31.7H30.9v15.5h15.5V31.7zM43.4 44.2h-9.5v-9.5h9.5V44.2z" fill="#8bd8bc" data-fill-palette-color="accent"></path><path d="M70.1 31.7H54.5v15.5h15.5V31.7zM67.1 44.2h-9.5v-9.5h9.5V44.2z" fill="#8bd8bc" data-fill-palette-color="accent"></path><path d="M46.4 10.3H30.9v15.5h15.5V10.3zM43.4 22.8h-9.5v-9.5h9.5V22.8z" fill="#8bd8bc" data-fill-palette-color="accent"></path><path d="M70.1 10.3H54.5v15.5h15.5V10.3zM67.1 22.8h-9.5v-9.5h9.5V22.8z" fill="#8bd8bc" data-fill-palette-color="accent"></path></g></svg></g></svg></g><g id="text-0"><path d="M27.136 101.518v0c-0.694 2.141-1.874 3.615-3.538 4.421-1.671 0.804-3.689 0.823-6.055 0.056v0l-11.51-3.734 0.817-2.519 11.107 3.602c1.769 0.574 3.259 0.657 4.468 0.248 1.203-0.41 2.039-1.34 2.509-2.789v0c0.487-1.5 0.379-2.775-0.322-3.824-0.708-1.051-1.972-1.872-3.792-2.462v0l-11.107-3.603 0.789-2.433 11.405 3.699c1.551 0.503 2.796 1.222 3.732 2.157 0.935 0.941 1.533 2.024 1.795 3.249 0.255 1.223 0.156 2.534-0.298 3.932z" fill="#233565" data-fill-palette-color="primary"></path><path d="M33.459 86.152v0c-0.369 0.772-0.848 1.399-1.436 1.88-0.588 0.481-1.296 0.744-2.124 0.789-0.822 0.048-1.753-0.177-2.793-0.674v0l-14.513-6.933 1.081-2.262 14.285 6.824c0.906 0.433 1.665 0.564 2.277 0.394 0.618-0.168 1.087-0.586 1.406-1.256v0c0.154-0.322 0.269-0.656 0.344-1.001 0.069-0.348 0.107-0.655 0.114-0.92v0l2.095 0.329c-0.009 0.362-0.069 0.793-0.18 1.292-0.115 0.49-0.3 1.003-0.556 1.538z" fill="#233565" data-fill-palette-color="primary"></path><path d="M38.642 77.115v0c-0.714 1.191-1.672 1.897-2.874 2.12-1.208 0.219-2.546-0.112-4.014-0.993v0l-5.826-3.493-1.29 2.15-1.864-1.118 1.316-2.193-3.644-2.81 0.988-1.647 3.919 2.35 2.064-3.442 1.864 1.118-2.064 3.442 6 3.597c0.925 0.555 1.685 0.747 2.281 0.579 0.606-0.171 1.071-0.528 1.398-1.072v0c0.239-0.399 0.4-0.817 0.481-1.255 0.088-0.435 0.135-0.854 0.142-1.259v0l2.084 0.436c0 0.432-0.073 0.974-0.22 1.625-0.141 0.654-0.388 1.276-0.741 1.865z" fill="#233565" data-fill-palette-color="primary"></path><path d="M43.674 69.084l-1.483 2.021-11.689-8.573 1.428-1.948 2.544 1.865c-0.351-0.558-0.62-1.161-0.806-1.807-0.181-0.642-0.223-1.309-0.127-1.998 0.102-0.686 0.394-1.358 0.877-2.016v0c0.163-0.223 0.34-0.44 0.528-0.652 0.185-0.207 0.358-0.368 0.519-0.485v0l1.638 2.142c-0.327 0.195-0.634 0.488-0.92 0.879v0c-0.407 0.554-0.636 1.197-0.687 1.928-0.055 0.737 0.128 1.506 0.55 2.31 0.428 0.807 1.15 1.583 2.166 2.328v0z" fill="#233565" data-fill-palette-color="primary"></path><path d="M53.058 58.58v0c-0.823 0.882-1.795 1.473-2.915 1.773-1.12 0.301-2.291 0.281-3.514-0.059-1.218-0.335-2.386-1.025-3.503-2.069v0c-1.059-0.989-1.81-2.091-2.252-3.306-0.442-1.215-0.557-2.429-0.346-3.643 0.206-1.218 0.765-2.315 1.675-3.29v0c0.57-0.611 1.194-1.066 1.871-1.366 0.676-0.3 1.34-0.487 1.99-0.561v0l-0.857-0.801 1.56-1.67 8.031 7.501c0.512 0.478 0.964 0.666 1.356 0.561 0.392-0.104 0.729-0.306 1.01-0.606v0l1.06 1.723c-1.214 1.3-2.478 1.591-3.79 0.873v0c0.139 0.72 0.138 1.516-0.004 2.389-0.142 0.873-0.599 1.723-1.372 2.551zM51.812 56.655v0c0.483-0.517 0.815-1.125 0.997-1.822 0.181-0.698 0.225-1.381 0.13-2.05v0l-5.682-5.306c-0.597 0.125-1.181 0.336-1.752 0.632-0.572 0.296-1.085 0.688-1.541 1.176v0c-0.607 0.65-0.976 1.38-1.105 2.19-0.13 0.801-0.033 1.62 0.292 2.458 0.324 0.838 0.88 1.625 1.668 2.36v0c0.763 0.713 1.572 1.2 2.425 1.463 0.858 0.266 1.689 0.305 2.493 0.115 0.804-0.19 1.496-0.595 2.075-1.216z" fill="#233565" data-fill-palette-color="primary"></path><path d="M73.943 40.759v0c-0.937 0.636-1.839 1.215-2.706 1.738-0.872 0.527-1.577 0.923-2.112 1.189v0l-10.887-16.045c0.499-0.428 1.131-0.938 1.894-1.529 0.767-0.586 1.667-1.229 2.699-1.929v0c1.969-1.336 3.736-1.989 5.303-1.961 1.563 0.023 2.778 0.673 3.644 1.95v0c0.575 0.848 0.837 1.72 0.787 2.618-0.051 0.898-0.378 1.832-0.981 2.803v0c1.298-0.343 2.436-0.37 3.414-0.081 0.987 0.291 1.805 0.913 2.452 1.867v0c0.991 1.461 1.203 3.016 0.635 4.664-0.564 1.653-1.945 3.225-4.142 4.716zM61.554 27.811l3.57 5.261 2.534-1.719c1.216-0.825 2.008-1.733 2.378-2.726 0.375-0.996 0.29-1.895-0.254-2.698v0c-0.583-0.859-1.381-1.274-2.397-1.245-1.019 0.023-2.144 0.453-3.376 1.29v0c-0.507 0.344-0.96 0.668-1.358 0.97-0.399 0.312-0.765 0.601-1.097 0.867zM72.865 38.827v0c1.372-0.931 2.276-1.903 2.712-2.915 0.431-1.009 0.329-1.982-0.307-2.92v0c-0.628-0.926-1.497-1.395-2.605-1.408-1.105-0.008-2.357 0.463-3.757 1.413v0l-2.626 1.782 3.865 5.697c0.875-0.463 1.781-1.013 2.718-1.649z" fill="#233565" data-fill-palette-color="primary"></path><path d="M88.674 32.546v0c-0.754 0.361-1.541 0.543-2.361 0.546-0.823-0.002-1.614-0.259-2.374-0.77-0.76-0.511-1.424-1.362-1.994-2.554v0l-4.064-8.5 2.261-1.081 3.921 8.199c0.488 1.021 1.082 1.701 1.782 2.039 0.693 0.341 1.46 0.311 2.298-0.091v0c0.687-0.329 1.286-0.787 1.797-1.374 0.514-0.582 0.909-1.23 1.187-1.946v0l-4.701-9.832 2.262-1.082 4.631 9.686c0.343 0.717 0.725 1.118 1.146 1.2 0.418 0.077 0.812 0.026 1.183-0.151v0l0.367 1.987c-1.563 0.747-2.823 0.588-3.781-0.478v0c-0.302 0.884-0.749 1.699-1.34 2.446-0.592 0.746-1.332 1.332-2.22 1.756z" fill="#233565" data-fill-palette-color="primary"></path><path d="M102.83 26.31l-2.364 0.837-4.837-13.666 2.363-0.836zM95.984 10.728v0c-0.457 0.162-0.907 0.135-1.347-0.08-0.443-0.222-0.742-0.552-0.898-0.991v0c-0.18-0.508-0.173-0.965 0.02-1.369 0.195-0.398 0.547-0.687 1.055-0.867v0c0.451-0.16 0.896-0.135 1.334 0.075 0.439 0.209 0.738 0.54 0.898 0.99v0c0.173 0.489 0.166 0.942-0.023 1.36-0.184 0.408-0.531 0.703-1.039 0.882z" fill="#233565" data-fill-palette-color="primary"></path><path d="M112.477 23.992v0c-0.828 0.217-1.615 0.257-2.362 0.119-0.747-0.138-1.405-0.509-1.975-1.112-0.568-0.596-0.998-1.452-1.29-2.567v0l-4.086-15.556 2.425-0.637 4.021 15.312c0.255 0.971 0.645 1.635 1.171 1.992 0.527 0.363 1.15 0.451 1.867 0.262v0c0.345-0.091 0.674-0.219 0.986-0.384 0.31-0.172 0.569-0.341 0.776-0.507v0l1.103 1.811c-0.282 0.227-0.649 0.46-1.102 0.698-0.448 0.229-0.96 0.419-1.534 0.569z" fill="#233565" data-fill-palette-color="primary"></path><path d="M123.42 22.133v0c-1.181 0.169-2.302 0.02-3.363-0.447-1.061-0.467-1.955-1.218-2.681-2.251-0.732-1.025-1.207-2.295-1.425-3.809v0c-0.207-1.448-0.103-2.784 0.314-4.008 0.417-1.224 1.061-2.239 1.933-3.044 0.866-0.798 1.879-1.28 3.041-1.447v0c0.954-0.137 1.806-0.061 2.555 0.226 0.743 0.288 1.337 0.608 1.781 0.96v0l-1.075-7.505 2.481-0.356 2.429 16.942c0.099 0.694 0.335 1.123 0.705 1.288 0.371 0.165 0.76 0.218 1.167 0.159v0l-0.254 2.008c-1.741 0.25-2.906-0.298-3.493-1.644v0c-0.325 0.632-0.817 1.237-1.476 1.815-0.658 0.585-1.538 0.956-2.639 1.113zM123.655 19.853v0c0.68-0.098 1.304-0.354 1.871-0.769 0.575-0.409 1.035-0.901 1.382-1.475v0l-1.021-7.125c-0.41-0.391-0.955-0.728-1.636-1.011-0.682-0.29-1.399-0.382-2.154-0.274v0c-0.881 0.126-1.617 0.477-2.208 1.052-0.598 0.576-1.02 1.29-1.266 2.142-0.239 0.851-0.286 1.781-0.141 2.788v0c0.145 1.014 0.469 1.894 0.97 2.639 0.502 0.745 1.119 1.3 1.852 1.665 0.74 0.364 1.523 0.486 2.351 0.368z" fill="#233565" data-fill-palette-color="primary"></path><path d="M138.301 20.418l-2.505 0.098-0.566-14.485 2.505-0.098zM136.386 3.507v0c-0.485 0.019-0.906-0.14-1.263-0.477-0.357-0.344-0.545-0.748-0.563-1.212v0c-0.021-0.539 0.121-0.973 0.424-1.302 0.304-0.322 0.726-0.494 1.265-0.514v0c0.478-0.019 0.896 0.137 1.253 0.467 0.357 0.33 0.545 0.734 0.563 1.212v0c0.02 0.519-0.121 0.949-0.425 1.291-0.297 0.335-0.715 0.514-1.254 0.535z" fill="#233565" data-fill-palette-color="primary"></path><path d="M146.185 20.729l-2.503-0.158 0.911-14.468 2.411 0.152-0.152 2.422c0.574-0.747 1.281-1.358 2.121-1.832 0.841-0.481 1.816-0.686 2.925-0.616v0c1.634 0.103 2.821 0.67 3.56 1.703 0.745 1.033 1.067 2.356 0.966 3.97v0l-0.594 9.434-2.502-0.158 0.576-9.151c0.065-1.036-0.128-1.885-0.58-2.548-0.451-0.663-1.111-1.022-1.978-1.077v0c-0.854-0.054-1.68 0.198-2.478 0.756-0.798 0.551-1.491 1.22-2.082 2.006v0z" fill="#233565" data-fill-palette-color="primary"></path><path d="M164.521 29.746v0c-0.837-0.177-1.63-0.452-2.378-0.824-0.749-0.365-1.388-0.814-1.916-1.346v0l1.351-1.935c0.361 0.442 0.808 0.836 1.341 1.183 0.531 0.354 1.216 0.619 2.053 0.796v0c1.292 0.274 2.38 0.146 3.263-0.383 0.876-0.524 1.471-1.531 1.787-3.022v0l0.371-1.75c-0.455 0.358-1.064 0.663-1.826 0.915-0.768 0.244-1.624 0.266-2.567 0.066v0c-1.075-0.228-2.035-0.72-2.88-1.478-0.845-0.758-1.454-1.737-1.826-2.939-0.372-1.202-0.399-2.554-0.081-4.058v0c0.3-1.418 0.865-2.621 1.694-3.609 0.821-0.983 1.8-1.685 2.937-2.106 1.138-0.427 2.306-0.514 3.506-0.26v0c0.798 0.169 1.494 0.461 2.088 0.876 0.595 0.409 1.088 0.864 1.477 1.367v0l0.233-1.097 2.235 0.473-2.935 13.856c-0.331 1.563-0.874 2.777-1.629 3.643-0.749 0.868-1.659 1.426-2.731 1.675-1.066 0.25-2.254 0.236-3.567-0.043zM167.007 21.376v0c0.725 0.154 1.415 0.131 2.071-0.068 0.65-0.207 1.202-0.489 1.657-0.848v0l1.571-7.417c-0.341-0.375-0.766-0.741-1.276-1.097-0.517-0.357-1.148-0.615-1.893-0.773v0c-0.745-0.158-1.487-0.105-2.225 0.159-0.738 0.264-1.391 0.728-1.958 1.394-0.568 0.665-0.968 1.545-1.2 2.639v0c-0.219 1.035-0.205 1.978 0.041 2.83 0.247 0.851 0.653 1.554 1.218 2.107 0.565 0.554 1.23 0.911 1.994 1.074z" fill="#233565" data-fill-palette-color="primary"></path><path d="M190.422 32.12v0c-1.23-0.567-2.277-1.249-3.141-2.048-0.861-0.79-1.511-1.616-1.952-2.48v0l2.142-1.462c0.375 0.781 0.867 1.509 1.477 2.183 0.612 0.668 1.427 1.236 2.443 1.704v0c1.212 0.558 2.289 0.75 3.23 0.576 0.944-0.181 1.615-0.703 2.012-1.567v0c0.226-0.49 0.325-0.971 0.298-1.443-0.027-0.473-0.248-1.023-0.664-1.652-0.415-0.629-1.092-1.416-2.029-2.36v0c-0.998-1.039-1.748-1.963-2.251-2.773-0.506-0.819-0.774-1.607-0.804-2.363-0.027-0.762 0.153-1.565 0.543-2.41v0c0.389-0.845 0.973-1.5 1.751-1.965 0.781-0.471 1.717-0.708 2.809-0.709 1.095 0.007 2.282 0.305 3.561 0.895v0c1.047 0.482 1.941 1.02 2.684 1.614 0.734 0.598 1.41 1.273 2.028 2.025v0l-1.838 1.647c-0.411-0.605-0.951-1.198-1.617-1.78-0.661-0.579-1.414-1.063-2.259-1.453v0c-1.114-0.513-2.094-0.697-2.94-0.552-0.843 0.139-1.424 0.554-1.742 1.245v0c-0.203 0.441-0.287 0.873-0.252 1.297 0.029 0.421 0.244 0.921 0.645 1.499 0.398 0.569 1.052 1.308 1.961 2.217v0c1.097 1.099 1.902 2.097 2.416 2.995 0.517 0.891 0.793 1.727 0.827 2.506 0.025 0.783-0.149 1.579-0.521 2.387v0c-0.505 1.096-1.209 1.907-2.111 2.433-0.909 0.524-1.943 0.763-3.103 0.719-1.153-0.042-2.354-0.35-3.603-0.925z" fill="#233565" data-fill-palette-color="primary"></path><path d="M205.376 40.409v0c-1.758-1.116-2.793-2.56-3.105-4.331-0.318-1.775 0.166-3.675 1.452-5.7v0c0.777-1.223 1.701-2.169 2.773-2.838 1.081-0.671 2.213-1.021 3.398-1.052 1.185-0.03 2.326 0.304 3.424 1.001v0c1.178 0.748 1.991 1.624 2.439 2.627 0.458 1.001 0.608 2.059 0.452 3.173-0.157 1.114-0.564 2.189-1.221 3.225v0c-0.347 0.546-0.71 1.062-1.09 1.547v0l-8.56-5.436c-0.584 1.234-0.753 2.38-0.507 3.438 0.248 1.068 0.913 1.945 1.994 2.631v0c0.705 0.448 1.391 0.776 2.058 0.984 0.657 0.21 1.319 0.362 1.984 0.458v0l-0.654 2.124c-0.722-0.107-1.488-0.303-2.299-0.586-0.816-0.287-1.662-0.708-2.538-1.265zM206.402 30.893v0l6.707 4.26c0.759-1.195 1.044-2.303 0.855-3.325-0.189-1.022-0.81-1.868-1.862-2.536v0c-0.905-0.574-1.858-0.733-2.86-0.475-1.002 0.258-1.949 0.95-2.84 2.076z" fill="#233565" data-fill-palette-color="primary"></path><path d="M215.824 47.557l-1.946-1.58 9.134-11.257 1.876 1.523-1.987 2.449c0.575-0.323 1.19-0.562 1.844-0.717 0.65-0.149 1.318-0.159 2.002-0.028 0.68 0.135 1.337 0.46 1.97 0.973v0c0.215 0.174 0.423 0.361 0.626 0.56 0.198 0.195 0.351 0.376 0.459 0.542v0l-2.219 1.532c-0.179-0.336-0.456-0.657-0.833-0.963v0c-0.534-0.433-1.165-0.693-1.893-0.78-0.733-0.091-1.511 0.054-2.333 0.437-0.827 0.388-1.637 1.071-2.432 2.049v0z" fill="#233565" data-fill-palette-color="primary"></path><path d="M227.319 58.463l-1.815-1.887 5.93-13.784 2.261 0.995-5.176 11.825 12.017-4.715 0.808 2.197z" fill="#233565" data-fill-palette-color="primary"></path><path d="M235.168 67.39l-1.573-1.952 11.287-9.098 1.573 1.952zM247.597 55.762v0c-0.305-0.378-0.428-0.81-0.371-1.298 0.062-0.492 0.275-0.884 0.636-1.175v0c0.42-0.338 0.852-0.484 1.298-0.436 0.44 0.052 0.829 0.288 1.168 0.708v0c0.3 0.373 0.424 0.8 0.372 1.283-0.052 0.483-0.264 0.875-0.636 1.176v0c-0.404 0.326-0.834 0.469-1.29 0.429-0.446-0.038-0.839-0.267-1.177-0.687z" fill="#233565" data-fill-palette-color="primary"></path><path d="M241.209 76.897v0c-0.754-1.15-1.146-2.331-1.175-3.545-0.034-1.219 0.277-2.374 0.932-3.464 0.646-1.092 1.592-2.047 2.837-2.863v0c1.167-0.765 2.387-1.227 3.661-1.385 1.274-0.158 2.483 0.02 3.627 0.535 1.153 0.517 2.121 1.373 2.905 2.569v0c0.447 0.682 0.78 1.326 1 1.931 0.216 0.6 0.363 1.217 0.44 1.851v0l-2.177 0.533c-0.07-0.574-0.186-1.095-0.347-1.562-0.157-0.461-0.393-0.931-0.707-1.41v0c-0.713-1.088-1.703-1.744-2.971-1.969-1.268-0.225-2.595 0.117-3.981 1.026v0c-0.84 0.551-1.499 1.204-1.978 1.962-0.479 0.757-0.74 1.545-0.783 2.363-0.044 0.818 0.178 1.6 0.666 2.344v0c0.388 0.592 0.786 1.052 1.195 1.38 0.407 0.338 0.891 0.665 1.453 0.981v0l-1.34 1.81c-0.579-0.305-1.143-0.705-1.693-1.199-0.544-0.498-1.065-1.127-1.564-1.888z" fill="#233565" data-fill-palette-color="primary"></path><path d="M247.688 88.786v0c-0.924-1.866-1.06-3.637-0.409-5.314 0.648-1.682 2.048-3.056 4.198-4.12v0c1.298-0.643 2.579-0.973 3.842-0.989 1.272-0.013 2.422 0.275 3.451 0.863 1.029 0.589 1.831 1.466 2.408 2.631v0c0.619 1.25 0.86 2.421 0.724 3.512-0.128 1.094-0.548 2.076-1.259 2.947-0.712 0.871-1.617 1.579-2.717 2.123v0c-0.58 0.287-1.158 0.54-1.734 0.758v0l-4.5-9.087c-1.139 0.752-1.878 1.644-2.216 2.677-0.342 1.042-0.228 2.136 0.34 3.284v0c0.371 0.749 0.787 1.385 1.249 1.908 0.453 0.52 0.94 0.994 1.46 1.421v0l-1.661 1.476c-0.562-0.466-1.116-1.031-1.661-1.693-0.549-0.668-1.054-1.467-1.515-2.397zM253.5 81.181v0l3.526 7.121c1.268-0.628 2.087-1.428 2.455-2.4 0.368-0.972 0.276-2.017-0.277-3.134v0c-0.476-0.96-1.209-1.59-2.199-1.89-0.99-0.299-2.159-0.198-3.505 0.303z" fill="#233565" data-fill-palette-color="primary"></path><path d="M252.995 101.692v0c-0.361-1.038-0.556-2.019-0.585-2.943-0.023-0.927 0.081-1.737 0.31-2.431v0l2.325 0.315c-0.229 0.593-0.35 1.281-0.363 2.064-0.013 0.782 0.117 1.568 0.392 2.357v0c0.341 0.98 0.761 1.665 1.261 2.056 0.497 0.384 1.001 0.487 1.51 0.309v0c0.369-0.128 0.662-0.334 0.878-0.615 0.216-0.282 0.375-0.716 0.478-1.301 0.103-0.585 0.149-1.397 0.138-2.435v0c-0.006-1.432 0.182-2.575 0.563-3.428 0.381-0.853 1.109-1.467 2.185-1.842v0c1.05-0.365 2.099-0.213 3.145 0.458 1.053 0.668 1.863 1.817 2.43 3.447v0c0.306 0.878 0.486 1.693 0.541 2.445 0.052 0.745 0.034 1.44-0.056 2.085v0l-2.177 0.019c0.114-0.575 0.152-1.194 0.113-1.859-0.032-0.667-0.177-1.369-0.434-2.107v0c-0.317-0.91-0.743-1.54-1.277-1.889-0.533-0.343-1.019-0.438-1.459-0.285v0c-0.42 0.146-0.716 0.456-0.886 0.929-0.171 0.473-0.245 1.305-0.223 2.497v0c0.025 1.939-0.193 3.374-0.654 4.305-0.463 0.925-1.223 1.571-2.28 1.938v0c-1.229 0.427-2.369 0.267-3.421-0.479-1.058-0.745-1.876-1.948-2.454-3.61z" fill="#233565" data-fill-palette-color="primary"></path><path d="M4.742 141.071c0-4.351 3.528-7.879 7.879-7.879 4.351 0 7.879 3.528 7.879 7.879 0 4.351-3.528 7.879-7.879 7.879-4.351 0-7.879-3.528-7.879-7.879z" fill="#233565" data-fill-palette-color="primary"></path><path d="M259.5 141.071c0-4.351 3.528-7.879 7.879-7.879 4.351 0 7.879 3.528 7.879 7.879 0 4.351-3.528 7.879-7.879 7.879-4.351 0-7.879-3.528-7.879-7.879z" fill="#233565" data-fill-palette-color="primary"></path></g><g id="text-1"><path d="M12.185 185.474v0c-0.694-2.141-0.605-4.027 0.269-5.656 0.881-1.632 2.504-2.831 4.87-3.599v0l11.51-3.733 0.817 2.519-11.106 3.603c-1.769 0.574-3.024 1.381-3.763 2.421-0.733 1.038-0.865 2.282-0.395 3.731v0c0.487 1.5 1.322 2.469 2.505 2.907 1.19 0.436 2.695 0.359 4.516-0.232v0l11.107-3.602 0.789 2.433-11.405 3.699c-1.551 0.503-2.981 0.651-4.288 0.444-1.309-0.213-2.429-0.739-3.36-1.577-0.925-0.841-1.613-1.96-2.066-3.358z" fill="#233565" data-fill-palette-color="secondary"></path><path d="M19.277 202.766v0c-0.369-0.772-0.556-1.538-0.561-2.298-0.004-0.76 0.236-1.476 0.722-2.148 0.479-0.67 1.239-1.253 2.278-1.75v0l14.513-6.934 1.081 2.263-14.285 6.824c-0.906 0.433-1.485 0.941-1.736 1.524-0.258 0.586-0.227 1.214 0.093 1.883v0c0.154 0.322 0.342 0.621 0.562 0.897 0.227 0.272 0.442 0.495 0.644 0.667v0l-1.572 1.423c-0.276-0.234-0.573-0.551-0.892-0.952-0.309-0.397-0.592-0.864-0.847-1.399z" fill="#233565" data-fill-palette-color="secondary"></path><path d="M25.161 213.111v0c-0.714-1.191-0.886-2.369-0.515-3.534 0.376-1.168 1.298-2.193 2.766-3.073v0l5.826-3.494-1.289-2.15 1.864-1.118 1.315 2.194 4.194-1.891 0.988 1.648-3.919 2.35 2.064 3.442-1.864 1.117-2.064-3.442-5.999 3.598c-0.925 0.555-1.453 1.135-1.585 1.74-0.134 0.615-0.038 1.194 0.287 1.738v0c0.239 0.399 0.533 0.738 0.88 1.016 0.342 0.282 0.69 0.521 1.044 0.718v0l-1.367 1.633c-0.381-0.204-0.825-0.523-1.329-0.959-0.511-0.432-0.943-0.943-1.297-1.533z" fill="#233565" data-fill-palette-color="secondary"></path><path d="M31.537 221.96l-1.483-2.022 11.69-8.573 1.429 1.948-2.543 1.866c0.638-0.167 1.293-0.242 1.966-0.226 0.667 0.021 1.315 0.181 1.944 0.48 0.624 0.303 1.176 0.784 1.658 1.441v0c0.163 0.223 0.318 0.456 0.464 0.701 0.142 0.239 0.244 0.452 0.307 0.64v0l-2.536 0.919c-0.088-0.37-0.275-0.751-0.562-1.142v0c-0.407-0.554-0.951-0.966-1.632-1.235-0.686-0.274-1.475-0.331-2.368-0.169-0.898 0.166-1.855 0.621-2.872 1.366v0z" fill="#233565" data-fill-palette-color="secondary"></path><path d="M41.571 234.291v0c-0.823-0.882-1.347-1.891-1.571-3.029-0.223-1.138-0.124-2.305 0.299-3.502 0.417-1.192 1.185-2.31 2.303-3.354v0c1.059-0.989 2.21-1.663 3.452-2.021 1.242-0.358 2.462-0.39 3.659-0.096 1.201 0.289 2.257 0.921 3.168 1.896v0c0.57 0.611 0.982 1.264 1.235 1.959 0.253 0.695 0.394 1.37 0.424 2.025v0l0.857-0.801 1.559 1.67-8.031 7.5c-0.512 0.478-0.73 0.917-0.653 1.315 0.077 0.398 0.256 0.748 0.537 1.049v0l-1.792 0.94c-1.214-1.3-1.419-2.58-0.613-3.841v0c-0.728 0.09-1.522 0.034-2.383-0.167-0.861-0.201-1.678-0.715-2.45-1.543zM43.575 233.18v0c0.483 0.517 1.066 0.89 1.75 1.118 0.684 0.228 1.362 0.318 2.037 0.27v0l5.681-5.306c-0.084-0.604-0.255-1.201-0.511-1.791-0.256-0.591-0.612-1.13-1.067-1.618v0c-0.607-0.65-1.311-1.068-2.11-1.252-0.79-0.184-1.614-0.143-2.472 0.123-0.858 0.266-1.681 0.767-2.469 1.503v0c-0.763 0.713-1.305 1.486-1.624 2.32-0.324 0.838-0.419 1.664-0.285 2.479 0.134 0.815 0.491 1.533 1.07 2.154z" fill="#233565" data-fill-palette-color="secondary"></path><path d="M65.243 254.207v0c-0.937-0.636-1.809-1.26-2.615-1.872-0.812-0.616-1.44-1.124-1.886-1.524v0l10.887-16.045c0.583 0.306 1.29 0.704 2.121 1.195 0.828 0.496 1.758 1.095 2.789 1.795v0c1.969 1.336 3.229 2.737 3.782 4.203 0.556 1.461 0.401 2.83-0.465 4.106v0c-0.575 0.848-1.289 1.414-2.142 1.699-0.853 0.285-1.842 0.326-2.968 0.124v0c0.799 1.079 1.244 2.127 1.337 3.143 0.094 1.025-0.182 2.015-0.829 2.968v0c-0.991 1.461-2.358 2.232-4.098 2.314-1.745 0.087-3.716-0.615-5.913-2.106zM72.696 237.909l-3.57 5.262 2.535 1.72c1.216 0.825 2.353 1.226 3.411 1.203 1.064-0.019 1.868-0.431 2.413-1.234v0c0.583-0.859 0.673-1.754 0.271-2.687-0.398-0.938-1.213-1.825-2.445-2.661v0c-0.507-0.344-0.975-0.645-1.403-0.903-0.437-0.256-0.841-0.489-1.212-0.7zM66.639 252.491v0c1.372 0.931 2.609 1.412 3.712 1.443 1.097 0.028 1.963-0.427 2.599-1.364v0c0.628-0.926 0.744-1.906 0.346-2.941-0.401-1.03-1.301-2.019-2.701-2.969v0l-2.627-1.782-3.865 5.697c0.754 0.642 1.599 1.28 2.536 1.916z" fill="#233565" data-fill-palette-color="secondary"></path><path d="M81.893 263.777v0c-0.754-0.361-1.39-0.859-1.907-1.494-0.515-0.642-0.812-1.419-0.891-2.332-0.079-0.912 0.166-1.964 0.736-3.155v0l4.064-8.5 2.262 1.081-3.921 8.2c-0.488 1.021-0.645 1.91-0.468 2.667 0.17 0.754 0.675 1.331 1.513 1.732v0c0.687 0.329 1.42 0.507 2.198 0.535 0.775 0.035 1.529-0.065 2.261-0.297v0l4.701-9.832 2.262 1.082-4.632 9.685c-0.343 0.717-0.415 1.266-0.215 1.646 0.203 0.373 0.489 0.649 0.86 0.826v0l-1.316 1.533c-1.563-0.747-2.23-1.828-2.001-3.243v0c-0.878 0.32-1.793 0.484-2.745 0.491-0.952 0.008-1.873-0.201-2.761-0.625z" fill="#233565" data-fill-palette-color="secondary"></path><path d="M97.807 270.021l-2.363-0.837 4.837-13.666 2.364 0.837zM102.29 253.602v0c-0.457-0.162-0.79-0.465-0.997-0.911-0.205-0.451-0.23-0.896-0.075-1.334v0c0.18-0.508 0.472-0.859 0.877-1.052 0.402-0.187 0.857-0.19 1.365-0.01v0c0.451 0.16 0.781 0.459 0.991 0.897 0.209 0.439 0.234 0.884 0.074 1.335v0c-0.173 0.489-0.464 0.837-0.873 1.042-0.4 0.202-0.854 0.212-1.362 0.033z" fill="#233565" data-fill-palette-color="secondary"></path><path d="M108.485 273.353v0c-0.828-0.217-1.533-0.57-2.116-1.057-0.583-0.487-0.974-1.134-1.173-1.939-0.201-0.798-0.156-1.755 0.137-2.87v0l4.085-15.556 2.424 0.637-4.02 15.312c-0.255 0.971-0.241 1.741 0.041 2.31 0.281 0.575 0.78 0.957 1.497 1.146v0c0.345 0.091 0.695 0.141 1.048 0.149 0.355 0.003 0.663-0.018 0.925-0.06v0l0.07 2.119c-0.357 0.06-0.791 0.081-1.303 0.066-0.503-0.021-1.042-0.106-1.615-0.257z" fill="#233565" data-fill-palette-color="secondary"></path><path d="M121.19 275.569v0c-1.181-0.169-2.215-0.627-3.102-1.374-0.887-0.747-1.534-1.718-1.941-2.913-0.415-1.19-0.514-2.542-0.297-4.056v0c0.207-1.448 0.683-2.7 1.427-3.758 0.744-1.058 1.647-1.851 2.71-2.379 1.055-0.523 2.163-0.701 3.324-0.535v0c0.954 0.137 1.75 0.448 2.389 0.935 0.632 0.485 1.112 0.959 1.44 1.421v0l1.076-7.505 2.482 0.356-2.428 16.942c-0.099 0.694 0.006 1.172 0.315 1.434 0.31 0.262 0.668 0.423 1.075 0.481v0l-0.807 1.855c-1.741-0.25-2.705-1.103-2.891-2.559v0c-0.489 0.515-1.131 0.958-1.927 1.327-0.796 0.376-1.744 0.485-2.845 0.328zM122.056 273.446v0c0.68 0.098 1.351 0.027 2.012-0.212 0.666-0.231 1.246-0.574 1.74-1.027v0l1.021-7.125c-0.284-0.49-0.712-0.967-1.286-1.43-0.573-0.47-1.236-0.759-1.99-0.868v0c-0.881-0.126-1.686 0.004-2.415 0.39-0.736 0.385-1.341 0.952-1.816 1.7-0.468 0.75-0.775 1.629-0.919 2.636v0c-0.145 1.014-0.082 1.949 0.19 2.805 0.272 0.856 0.709 1.562 1.31 2.118 0.608 0.557 1.325 0.895 2.153 1.013z" fill="#233565" data-fill-palette-color="secondary"></path><path d="M137.714 276.764l-2.506-0.098 0.566-14.486 2.505 0.098zM137.123 259.754v0c-0.485-0.019-0.892-0.21-1.222-0.573-0.33-0.37-0.485-0.788-0.467-1.253v0c0.021-0.539 0.196-0.96 0.525-1.264 0.329-0.297 0.762-0.436 1.301-0.415v0c0.478 0.019 0.882 0.206 1.212 0.563 0.33 0.357 0.486 0.774 0.467 1.253v0c-0.02 0.519-0.195 0.937-0.524 1.254-0.322 0.311-0.753 0.456-1.292 0.435z" fill="#233565" data-fill-palette-color="secondary"></path><path d="M147.13 276.435l-2.502 0.157-0.911-14.468 2.412-0.151 0.152 2.421c0.476-0.813 1.1-1.508 1.874-2.083 0.774-0.582 1.715-0.908 2.826-0.978v0c1.634-0.103 2.883 0.312 3.745 1.243 0.869 0.931 1.354 2.204 1.456 3.819v0l0.593 9.433-2.502 0.158-0.576-9.151c-0.065-1.036-0.363-1.854-0.894-2.456-0.531-0.601-1.23-0.875-2.097-0.82v0c-0.854 0.054-1.642 0.407-2.365 1.06-0.722 0.646-1.327 1.397-1.813 2.251v0z" fill="#233565" data-fill-palette-color="secondary"></path><path d="M170.321 279.78v0c-0.837 0.177-1.673 0.248-2.508 0.211-0.833-0.03-1.599-0.182-2.297-0.454v0l0.45-2.317c0.509 0.257 1.078 0.437 1.705 0.538 0.629 0.108 1.362 0.073 2.199-0.105v0c1.292-0.274 2.235-0.832 2.829-1.673 0.588-0.834 0.724-1.996 0.408-3.487v0l-0.37-1.75c-0.27 0.512-0.703 1.038-1.299 1.577-0.603 0.534-1.376 0.901-2.319 1.101v0c-1.075 0.228-2.152 0.166-3.232-0.184-1.08-0.35-2.034-0.999-2.861-1.946-0.828-0.948-1.401-2.173-1.719-3.676v0c-0.3-1.418-0.272-2.746 0.085-3.987 0.352-1.232 0.962-2.271 1.831-3.115 0.867-0.852 1.9-1.405 3.1-1.659v0c0.798-0.169 1.552-0.184 2.264-0.046 0.71 0.132 1.345 0.349 1.904 0.651v0l-0.232-1.098 2.235-0.473 2.935 13.856c0.331 1.563 0.327 2.893-0.013 3.991-0.333 1.097-0.939 1.976-1.818 2.638-0.873 0.66-1.965 1.129-3.277 1.407zM169.2 271.12v0c0.725-0.154 1.347-0.454 1.865-0.901 0.51-0.453 0.901-0.935 1.171-1.447v0l-1.57-7.418c-0.464-0.205-1.001-0.367-1.612-0.485-0.617-0.117-1.298-0.097-2.043 0.061v0c-0.745 0.158-1.401 0.507-1.969 1.047-0.568 0.54-0.976 1.23-1.226 2.068-0.25 0.838-0.258 1.805-0.027 2.899v0c0.219 1.035 0.614 1.892 1.185 2.57 0.571 0.678 1.226 1.156 1.967 1.433 0.741 0.277 1.493 0.335 2.259 0.173z" fill="#233565" data-fill-palette-color="secondary"></path><path d="M196.999 264.299v0c-1.23 0.567-2.43 0.919-3.599 1.056-1.159 0.141-2.211 0.098-3.153-0.128v0l0.282-2.578c0.837 0.223 1.71 0.322 2.618 0.296 0.906-0.031 1.867-0.281 2.883-0.749v0c1.212-0.558 2.057-1.252 2.536-2.081 0.476-0.835 0.515-1.684 0.118-2.547v0c-0.226-0.49-0.527-0.878-0.904-1.164-0.377-0.286-0.939-0.476-1.687-0.57-0.748-0.093-1.785-0.09-3.112 0.009v0c-1.438 0.084-2.628 0.053-3.571-0.092-0.951-0.148-1.724-0.456-2.318-0.924-0.597-0.474-1.09-1.134-1.479-1.979v0c-0.389-0.845-0.508-1.714-0.355-2.608 0.149-0.9 0.578-1.765 1.286-2.596 0.717-0.827 1.715-1.536 2.995-2.125v0c1.047-0.482 2.037-0.812 2.971-0.99 0.931-0.169 1.883-0.244 2.857-0.226v0l0.057 2.467c-0.727-0.081-1.529-0.056-2.404 0.073-0.869 0.126-1.727 0.384-2.571 0.773v0c-1.114 0.513-1.891 1.138-2.331 1.875-0.443 0.731-0.504 1.442-0.186 2.133v0c0.203 0.441 0.477 0.786 0.822 1.035 0.339 0.252 0.858 0.413 1.559 0.484 0.691 0.067 1.678 0.051 2.959-0.05v0c1.548-0.119 2.83-0.083 3.846 0.109 1.013 0.186 1.827 0.52 2.442 1.001 0.612 0.49 1.103 1.139 1.476 1.947v0c0.505 1.096 0.664 2.158 0.477 3.186-0.193 1.031-0.683 1.973-1.47 2.826-0.781 0.85-1.796 1.562-3.044 2.137z" fill="#233565" data-fill-palette-color="secondary"></path><path d="M213.803 255.002v0c-1.758 1.116-3.505 1.439-5.241 0.969-1.742-0.467-3.255-1.713-4.541-3.738v0c-0.777-1.223-1.24-2.462-1.39-3.716-0.148-1.263 0.017-2.438 0.493-3.523 0.477-1.085 1.264-1.976 2.362-2.674v0c1.178-0.748 2.316-1.112 3.415-1.09 1.101 0.011 2.122 0.325 3.064 0.94 0.942 0.615 1.741 1.441 2.399 2.476v0c0.347 0.546 0.659 1.094 0.936 1.645v0l-8.559 5.436c0.868 1.053 1.834 1.693 2.896 1.92 1.072 0.229 2.148 0.001 3.23-0.685v0c0.705-0.448 1.294-0.929 1.765-1.445 0.469-0.506 0.889-1.039 1.258-1.601v0l1.644 1.495c-0.404 0.608-0.907 1.219-1.507 1.831-0.606 0.617-1.348 1.203-2.224 1.76zM205.626 250.028v0l6.708-4.26c-0.759-1.195-1.641-1.924-2.647-2.188-1.006-0.264-2.035-0.061-3.087 0.608v0c-0.905 0.574-1.453 1.37-1.646 2.386-0.193 1.017 0.031 2.168 0.672 3.454z" fill="#233565" data-fill-palette-color="secondary"></path><path d="M225.308 246.273l-1.946 1.58-9.135-11.257 1.876-1.522 1.988 2.449c-0.198-0.629-0.305-1.28-0.322-1.953-0.012-0.667 0.116-1.322 0.384-1.965 0.272-0.638 0.725-1.213 1.359-1.727v0c0.215-0.174 0.44-0.34 0.677-0.497 0.232-0.153 0.44-0.266 0.624-0.338v0l1.042 2.488c-0.366 0.106-0.737 0.311-1.113 0.617v0c-0.534 0.433-0.918 0.997-1.154 1.691-0.24 0.698-0.258 1.49-0.053 2.373 0.209 0.889 0.711 1.823 1.505 2.802v0z" fill="#233565" data-fill-palette-color="secondary"></path><path d="M238.166 234.114l-1.815 1.887-14.003-5.391 0.906-2.298 12.017 4.714-5.177-11.825 2.164-0.893z" fill="#233565" data-fill-palette-color="secondary"></path><path d="M246.887 224.198l-1.574 1.952-11.286-9.097 1.573-1.952zM232.885 214.522v0c-0.305 0.378-0.701 0.591-1.19 0.639-0.494 0.043-0.922-0.081-1.283-0.373v0c-0.42-0.338-0.654-0.73-0.702-1.176-0.043-0.441 0.105-0.872 0.444-1.291v0c0.3-0.373 0.692-0.585 1.175-0.637 0.483-0.052 0.911 0.072 1.284 0.373v0c0.404 0.326 0.635 0.715 0.694 1.169 0.057 0.444-0.083 0.876-0.422 1.296z" fill="#233565" data-fill-palette-color="secondary"></path><path d="M254.354 213.864v0c-0.754 1.15-1.681 1.98-2.781 2.491-1.104 0.517-2.287 0.692-3.549 0.527-1.259-0.157-2.512-0.643-3.757-1.46v0c-1.167-0.765-2.077-1.7-2.73-2.806-0.653-1.105-0.972-2.285-0.956-3.539 0.015-1.264 0.414-2.493 1.197-3.688v0c0.447-0.682 0.904-1.244 1.372-1.687 0.464-0.437 0.971-0.818 1.522-1.142v0l1.357 1.784c-0.499 0.294-0.93 0.607-1.294 0.941-0.36 0.328-0.697 0.732-1.011 1.211v0c-0.713 1.088-0.92 2.258-0.621 3.509 0.299 1.252 1.142 2.332 2.529 3.242v0c0.84 0.551 1.702 0.894 2.588 1.031 0.885 0.137 1.712 0.063 2.48-0.224 0.768-0.286 1.396-0.801 1.883-1.545v0c0.388-0.592 0.651-1.141 0.789-1.646 0.147-0.508 0.254-1.082 0.321-1.725v0l2.193 0.508c-0.049 0.653-0.191 1.33-0.424 2.03-0.239 0.697-0.609 1.426-1.108 2.188z" fill="#233565" data-fill-palette-color="secondary"></path><path d="M261.774 200.332v0c-0.924 1.866-2.25 3.048-3.978 3.546-1.731 0.504-3.672 0.224-5.822-0.841v0c-1.298-0.643-2.337-1.462-3.116-2.457-0.781-1.004-1.25-2.093-1.405-3.267-0.155-1.175 0.056-2.345 0.633-3.511v0c0.619-1.25 1.404-2.151 2.354-2.704 0.947-0.561 1.983-0.823 3.108-0.785 1.124 0.038 2.236 0.329 3.335 0.874v0c0.58 0.287 1.131 0.594 1.654 0.92v0l-4.5 9.086c1.289 0.45 2.446 0.497 3.473 0.141 1.035-0.36 1.837-1.113 2.406-2.261v0c0.371-0.749 0.624-1.466 0.76-2.15 0.139-0.676 0.221-1.35 0.245-2.022v0l2.181 0.425c-0.03 0.73-0.143 1.512-0.339 2.348-0.199 0.842-0.528 1.728-0.989 2.658zM252.203 200.319v0l3.526-7.121c-1.268-0.628-2.401-0.794-3.397-0.498-0.997 0.296-1.771 1.003-2.325 2.121v0c-0.476 0.96-0.532 1.925-0.17 2.894 0.362 0.969 1.151 1.837 2.366 2.604z" fill="#233565" data-fill-palette-color="secondary"></path><path d="M267.841 185.615v0c-0.361 1.038-0.817 1.928-1.368 2.671-0.557 0.741-1.141 1.312-1.752 1.713v0l-1.628-1.69c0.548-0.323 1.07-0.787 1.565-1.393 0.496-0.605 0.881-1.303 1.156-2.092v0c0.341-0.98 0.437-1.778 0.287-2.394-0.152-0.609-0.482-1.003-0.992-1.18v0c-0.369-0.128-0.726-0.149-1.07-0.062-0.344 0.087-0.739 0.328-1.182 0.723-0.444 0.395-0.984 1.003-1.62 1.824v0c-0.884 1.127-1.741 1.906-2.569 2.339-0.828 0.433-1.78 0.462-2.856 0.087v0c-1.05-0.365-1.778-1.136-2.182-2.311-0.411-1.178-0.333-2.581 0.234-4.21v0c0.306-0.878 0.67-1.629 1.094-2.253 0.422-0.617 0.868-1.15 1.338-1.6v0l1.718 1.336c-0.446 0.38-0.86 0.842-1.242 1.388-0.389 0.543-0.711 1.183-0.968 1.921v0c-0.317 0.91-0.373 1.668-0.17 2.274 0.205 0.599 0.528 0.976 0.966 1.129v0c0.42 0.146 0.844 0.087 1.272-0.179 0.428-0.265 1.002-0.871 1.724-1.819v0c1.184-1.536 2.245-2.526 3.185-2.97 0.937-0.438 1.934-0.473 2.991-0.105v0c1.229 0.427 2.023 1.26 2.384 2.499 0.367 1.241 0.262 2.692-0.315 4.354z" fill="#233565" data-fill-palette-color="secondary"></path></g></svg></g></svg></g></svg></g><g></g></svg></g><defs></defs></svg><rect width="280" height="280" fill="none" stroke="none" visibility="hidden"></rect></g></svg></g></svg>